<svg xmlns="http://www.w3.org/2000/svg" viewBox="0 0 640 930"><defs><pattern id="dots" width="8" height="8" patternUnits="userSpaceOnUse"><circle cx="2" cy="2" r=".8" fill="#aaa"/></pattern><pattern id="rain" width="40" height="50" patternUnits="userSpaceOnUse"><path d="m30 0-15 35" stroke="#b7b7b7" stroke-width="1"/></pattern></defs><rect width="640" height="930" fill="#f5f3ed"/><g fill="none" stroke="#303338" stroke-width="3"><rect x="21" y="20" width="598" height="338"/><rect x="21" y="373" width="235" height="230"/><rect x="273" y="373" width="346" height="230"/><rect x="21" y="620" width="598" height="285"/></g><path d="M23 183 194 97 314 181 470 111 617 197v159H23Z" fill="#d5d6d2"/><path d="M23 246 198 173 405 250 617 194v160H23Z" fill="#b4b8b5"/><path d="M24 273 617 242v77L24 350Z" fill="#454c51"/><path d="m29 314 585-30m-570 52 570-29" stroke="#e1e1dd" stroke-width="5"/><g transform="translate(100 186) rotate(-4)"><rect width="369" height="118" rx="12" fill="#eeede4" stroke="#45494a" stroke-width="3"/><path d="M0 81h369v13H0Z" fill="#8d9697"/><g fill="#707e84" stroke="#38434a" stroke-width="2"><rect x="17" y="18" width="54" height="46"/><rect x="87" y="18" width="54" height="46"/><rect x="158" y="18" width="54" height="46"/><rect x="232" y="18" width="47" height="46"/><rect x="301" y="17" width="51" height="64"/></g></g><path d="M548 36v269M530 82h57M30 72l578 26" stroke="#3d4147" stroke-width="3"/><rect x="22" y="21" width="596" height="335" fill="url(#rain)"/><rect x="40" y="37" width="45" height="133" fill="#f8f7f1" stroke="#303338" stroke-width="2"/><text x="63" y="62" fill="#303338" font-size="20" writing-mode="tb" font-family="Microsoft YaHei,sans-serif">雨后的第七站</text><rect x="22" y="374" width="233" height="228" fill="url(#dots)"/><path d="M55 603V484q11-27 61-27h64q47 0 56 39v107" fill="#79848b" stroke="#3b424b" stroke-width="3"/><path d="M86 603V512q0-21 28-21h59q28 0 28 21v91" fill="#c7cdcc"/><path d="M92 496q10-46 29-53l52-1q29 9 29 54" fill="#e8e8df"/><path d="M114 449q-10-64 34-65 51 0 46 69l-18-5-5-37q-23 13-43 6l-1 32Z" fill="#333c47"/><rect x="285" y="386" width="322" height="203" fill="#e2e3df"/><path d="M291 537 421 477 607 548v39H291Z" fill="#a6b0b1"/><path d="M290 548h317M446 385v204" stroke="#6c757d" stroke-width="6"/><ellipse cx="367" cy="431" rx="66" ry="31" fill="#faf9f4" stroke="#333a42" stroke-width="2"/><path d="m350 459-7 16 22-16" fill="#faf9f4" stroke="#333a42" stroke-width="2"/><text x="367" y="439" text-anchor="middle" font-size="22" fill="#282d34" font-family="Microsoft YaHei,sans-serif">如果错过了呢？</text><rect x="22" y="621" width="596" height="283" fill="url(#dots)"/><path d="M24 777q133-90 290-8t303-38v172H24Z" fill="#a0a9a7"/><path d="M24 837q141-65 310-25t283-8v100H24Z" fill="#657775"/><path d="m0 896 408-137M0 914l463-132" stroke="#e0e1d7" stroke-width="7"/><path d="M52 849h16V712H52Zm515-20h16V697h-16" fill="#414b51"/><path d="M31 697h58v34H31ZM547 679h56v34h-56Z" fill="#e6e7df" stroke="#465158" stroke-width="2"/><g fill="#37454c"><circle cx="405" cy="766" r="12"/><path d="m399 780-16 48h38l-11-48ZM392 827l-8 46h8l13-38 6 38h8l-4-46Z"/><circle cx="454" cy="766" r="11"/><path d="m446 779-8 40h32l-8-40ZM441 818l1 51h8l5-39 7 39h8l-7-51Z"/></g><ellipse cx="463" cy="670" rx="114" ry="31" fill="#faf9f4" stroke="#30353c" stroke-width="2"/><text x="463" y="678" text-anchor="middle" font-family="Microsoft YaHei,sans-serif" font-size="23" fill="#30353c">那就看看下一站。</text><text x="320" y="922" text-anchor="middle" fill="#666b72" font-family="Segoe UI,sans-serif" font-size="11">PICOMIC ORIGINAL STORY · 04</text></svg>